<?xml version="1.0" standalone="no"?>
<!DOCTYPE svg PUBLIC "-//W3C//DTD SVG 20010904//EN"
 "http://www.w3.org/TR/2001/REC-SVG-20010904/DTD/svg10.dtd">
<svg version="1.0" xmlns="http://www.w3.org/2000/svg"
 width="512.000000pt" height="512.000000pt" viewBox="0 0 512.000000 512.000000"
 preserveAspectRatio="xMidYMid meet">
<metadata>
Created by potrace 1.11, written by Peter Selinger 2001-2013
</metadata>
<g transform="translate(0.000000,512.000000) scale(0.100000,-0.100000)"
fill="#000000" stroke="none">
<path d="M4435 5106 c-170 -42 -318 -166 -386 -323 -59 -138 -58 -326 3 -447
l20 -39 -458 -458 -457 -458 -41 28 c-93 63 -188 99 -306 119 -48 8 -185 7
-240 -2 -93 -15 -214 -65 -290 -120 l-35 -25 -356 356 -356 355 24 66 c35 95
29 194 -15 285 -37 74 -67 107 -137 151 -69 44 -113 57 -189 57 -152 1 -280
-80 -344 -220 -35 -74 -40 -191 -12 -269 74 -208 305 -306 508 -216 l32 15
355 -355 355 -354 -44 -71 c-46 -75 -90 -195 -102 -276 -27 -196 14 -370 130
-547 15 -23 6 -33 -572 -611 l-588 -588 -44 34 c-219 165 -527 140 -725 -58
-115 -115 -167 -246 -161 -410 18 -489 605 -717 951 -370 58 58 129 177 140
233 2 13 7 31 10 41 22 71 8 230 -30 322 l-25 61 596 596 c513 513 598 594
612 584 88 -61 188 -105 287 -126 l60 -12 1 -472 0 -472 -40 -11 c-113 -28
-195 -78 -277 -167 -102 -110 -150 -245 -143 -402 4 -96 20 -155 64 -239 28
-52 104 -140 158 -183 33 -27 131 -73 187 -89 80 -22 237 -18 316 9 166 57
290 179 355 347 22 58 27 87 27 165 1 105 -3 131 -28 205 -35 102 -129 222
-220 281 -41 27 -121 61 -172 74 l-41 10 1 471 c0 323 4 472 11 474 153 35
206 56 308 118 l47 29 356 -356 c289 -289 354 -360 345 -371 -18 -21 -40 -114
-41 -171 -4 -207 178 -381 386 -369 131 8 231 66 300 175 128 202 15 487 -219
551 -64 18 -165 13 -231 -12 l-58 -21 -355 355 c-335 336 -355 357 -340 374 9
10 32 47 51 83 130 243 118 531 -30 758 l-35 52 449 448 448 449 40 -30 c187
-137 432 -149 626 -31 113 68 206 189 243 314 37 126 28 283 -24 390 -39 81
-49 95 -102 152 -109 113 -232 168 -388 173 -52 2 -117 -2 -145 -9z"/>
</g>
</svg>
