<svg height="512" viewBox="0 0 61 61" width="512" xmlns="http://www.w3.org/2000/svg"><g id="Page-1" fill="none" fill-rule="evenodd"><g id="067---Zoom-Out" fill="rgb(0,0,0)" fill-rule="nonzero"><path id="Shape" d="m25 5c-2.1466646-.00208631-4.2795369.34303647-6.316 1.022-.5246705.17452199-.808522.74132949-.634 1.26599999.174522.52467051.7413295.80852198 1.266.63400001 8.3026851-2.77067516 17.3957147.82481821 21.5583256 8.5244215 4.1626109 7.6996033 2.1911259 17.2768684-4.6741204 22.7063816-6.8652464 5.4295131-16.639072 5.1412546-23.1723996-.6834215-6.53332755-5.8246761-7.93695396-15.501483-3.3278056-22.9423816.29105406-.469442.14644204-1.0859459-.323-1.377s-1.08594594-.146442-1.377.323c-4.79489989 7.7457022-3.74968664 17.752993 2.5422714 24.3407263 6.2919581 6.5877334 16.2407192 8.0912267 24.1983646 3.6569458 7.9576454-4.4342808 11.9133237-13.6858185 9.6213934-22.5025085s-10.2523114-14.97060524-19.3620294-14.9681636z"/><path id="Shape" d="m58.416 51.345-6.648-6.645-2.121-2.121c-.7808851-.7800976-2.0461149-.7800976-2.827 0l-2.872-2.879c7.7832636-10.0261165 6.4310346-24.3756148-3.0882056-32.77122501-9.5192403-8.3956102-23.9252433-7.94427711-32.9002699 1.03074951-8.97502662 8.9750266-9.42635971 23.3810296-1.03074951 32.9002699 8.39561021 9.5192402 22.74510851 10.8714692 32.77122501 3.0882056l2.871 2.871c-.7800976.7808851-.7800976 2.0461149 0 2.827l10.187 10.182c1.5619994 1.5615278 4.0940006 1.5615278 5.656 0l1.414-1.414c1.5615278-1.5619994 1.5615278-4.0940006 0-5.656zm-55.416-26.345c0-12.1502645 9.8497355-22 22-22s22 9.8497355 22 22-9.8497355 22-22 22c-12.1445532-.0137772-21.98622284-9.8554468-22-22zm39.654 16.238 2.751 2.751-1.416 1.416-2.751-2.751c.4913333-.4526667.9633333-.9246667 1.416-1.416zm15.76 15.762-1.414 1.414c-.791167.755814-2.036833.755814-2.828 0l-10.183-10.182.7-.7.008-.006 2.83-2.83.006-.008.7-.7 1.414 1.412-2.122 2.121c-.2599566.2510745-.3642126.6228779-.2726972.9725073.0915155.3496295.3645604.6226744.7141899.7141899.3496294.0915154.7214328-.0127406.9725073-.2726972l2.122-2.121 5.232 5.232-2.121 2.122c-.2599566.2510745-.3642126.6228779-.2726972.9725073.0915155.3496295.3645604.6226744.7141899.7141899.3496294.0915154.7214328-.0127406.9725073-.2726972l2.121-2.122.707.708c.7807639.7809997.7807639 2.0470003 0 2.828z"/><path id="Shape" d="m16 28h17.893c1.4926457.0187574 2.7844415-1.0342225 3.067-2.5.1472345-.8710496-.0969283-1.7627146-.6673845-2.4372405s-1.4092101-1.0633367-2.2926155-1.0627595h-17.893c-1.4926457-.0187574-2.7844415 1.0342225-3.067 2.5-.1472345.8710496.0969283 1.7627146.6673845 2.4372405s1.4092101 1.0633367 2.2926155 1.0627595zm.107-4h17.893c.2959084-.0001277.5766789.1308044.7667785.3575729.1900995.2267685.2700055.526085.2182215.8174271-.1220998.4992947-.5783433.8439842-1.092.825h-17.893c-.2959084.0001277-.5766789-.1308044-.7667785-.3575729-.1900995-.2267685-.2700055-.526085-.2182215-.8174271.1220998-.4992947.5783433-.8439842 1.092-.825z"/></g></g></svg>